HIERARCHY
ROOT Hips
{
  OFFSET -32.5998 29.0326 120.673
  CHANNELS 6 Xposition Yposition Zposition Zrotation Xrotation Yrotation
  JOINT LeftUpLeg
  {
    OFFSET 8.64259 1.95398 -2.38835
    CHANNELS 3 Zrotation Xrotation Yrotation
    JOINT LeftLeg
    {
      OFFSET 43.7702 0 0
      CHANNELS 3 Zrotation Xrotation Yrotation
      JOINT LeftFoot
      {
        OFFSET 40.6238 0 0
        CHANNELS 3 Zrotation Xrotation Yrotation
        JOINT LeftToeBase
        {
          OFFSET 12.7242 0 0
          CHANNELS 3 Zrotation Xrotation Yrotation
          End Site
          {
            OFFSET 0 0 0
          }
        }
      }
    }
  }
  JOINT RightUpLeg
  {
    OFFSET -8.2249 1.95398 -2.59336
    CHANNELS 3 Zrotation Xrotation Yrotation
    JOINT RightLeg
    {
      OFFSET 43.5653 0 0
      CHANNELS 3 Zrotation Xrotation Yrotation
      JOINT RightFoot
      {
        OFFSET 40.6238 0 0
        CHANNELS 3 Zrotation Xrotation Yrotation
        JOINT RightToeBase
        {
          OFFSET 12.7242 0 0
          CHANNELS 3 Zrotation Xrotation Yrotation
          End Site
          {
            OFFSET 0 0 0
          }
        }
      }
    }
  }
  JOINT Spine
  {
    OFFSET 0.165834 0.87714 6.61349
    CHANNELS 3 Zrotation Xrotation Yrotation
    JOINT Spine1
    {
      OFFSET 7.38963 1.71661e-005 0
      CHANNELS 3 Zrotation Xrotation Yrotation
      JOINT Spine2
      {
        OFFSET 11.9445 1.14441e-005 0
        CHANNELS 3 Zrotation Xrotation Yrotation
        JOINT Spine3
        {
          OFFSET 14.7254 4.19617e-005 0
          CHANNELS 3 Zrotation Xrotation Yrotation
          JOINT Spine4
          {
            OFFSET 10.9679 0 0
            CHANNELS 3 Zrotation Xrotation Yrotation
            JOINT RightShoulder
            {
              OFFSET 2.46616 -1.6653 3.69651
              CHANNELS 3 Zrotation Xrotation Yrotation
              JOINT RightArm
              {
                OFFSET 13.0012 0 0
                CHANNELS 3 Zrotation Xrotation Yrotation
                JOINT RightForeArm
                {
                  OFFSET 28.7848 1.62311e-005 0
                  CHANNELS 3 Zrotation Xrotation Yrotation
                  JOINT RightHand
                  {
                    OFFSET 26.5688 1.62095e-005 0
                    CHANNELS 3 Zrotation Xrotation Yrotation
                    End Site
                    {
                      OFFSET 0 0 0
                    }
                  }
                }
              }
            }
            JOINT LeftShoulder
            {
              OFFSET 2.38034 -1.29275 -3.7523
              CHANNELS 3 Zrotation Xrotation Yrotation
              JOINT LeftArm
              {
                OFFSET 16.3182 6.07031e-005 0
                CHANNELS 3 Zrotation Xrotation Yrotation
                JOINT LeftForeArm
                {
                  OFFSET 27.0901 0 0
                  CHANNELS 3 Zrotation Xrotation Yrotation
                  JOINT LeftHand
                  {
                    OFFSET 24.5451 1.51738e-005 0
                    CHANNELS 3 Zrotation Xrotation Yrotation
                    End Site
                    {
                      OFFSET 0 0 0
                    }
                  }
                }
              }
            }
            JOINT Neck
            {
              OFFSET 5.0226 -0.0266342 0
              CHANNELS 3 Zrotation Xrotation Yrotation
              JOINT Head
              {
                OFFSET 6.69364 2.86102e-005 0
                CHANNELS 3 Zrotation Xrotation Yrotation
                End Site
                {
                  OFFSET 0 0 0
                }
              }
            }
          }
        }
      }
    }
  }
}
MOTION
Frames:	15
Frame Time:	0.0416667
-312.051 87.5789 308.248 93.3968 27.296 84.9031 -167.7 41.4741 89.0815 -63.9224 1.26606 -2.30707 82.5064 11.4981 4.13156 22.2512 -1.29195 -2.99233 170.236 -16.6551 80.7342 -34.709 -29.7113 -8.18291 70.5586 -9.73331 -4.48552 45.1743 -7.86363 9.75568 3.98744 8.00306 -89.946 10.9123 7.96383 -0.643788 -0.734489 7.92777 -0.995901 -23.4608 7.7868 1.79451 -3.44815 7.78681 1.79452 96.7143 -12.6587 -97.5558 31.7937 22.1761 -9.25742 -33.5862 13.7214 -119.36 -15.1001 -1.32893 5.1273 -86.7669 -42.6799 82.3077 -33.7171 45.5261 57.9328 85.6386 -39.5424 -77.5218 11.886 -0.353575 -6.47303 23.0616 -7.13737 2.24498 -21.0376 -7.45499 -1.36966 
-302.17 88.4109 298.611 87.9981 43.3757 89.5245 -177.994 45.6901 87.3784 -39.9645 11.4579 -0.885702 70.7141 6.83609 3.35205 25.2942 -0.523981 -2.08843 174.593 -18.3168 90.8481 -34.2185 -21.1357 -5.94175 59.9181 1.8257 -3.55952 25.8688 -1.89762 12.3546 2.75333 7.65932 -89.4275 11.5539 5.74527 0.548775 -0.104252 5.76381 0.29451 -22.7302 5.31402 2.25495 -2.71751 5.31404 2.25495 95.5752 -10.4151 -101.678 31.4176 28.825 -9.99453 -32.8785 14.2283 -123.903 -12.7652 -1.02778 4.27102 -84.8566 -28.1471 82.8647 -39.0606 39.8782 55.1357 84.1648 -41.1167 -79.083 11.0047 0.478956 0.13641 20.8638 -11.8172 -6.80158 -18.2427 -9.27789 -0.0607861 
-291.644 89.201 287.954 89.1501 42.7319 89.1485 -176.029 38.8791 87.3393 -27.928 11.8045 -2.48711 72.0289 7.7037 0.727381 21.3866 -5.4182 4.63177 175.787 -19.7536 91.5737 -41.6228 -20.4707 -6.43527 62.9826 -0.800371 -2.99781 17.7411 1.28494 10.7312 2.85215 7.41259 -89.5268 12.061 5.89426 0.304108 0.403562 5.90194 0.0434579 -22.2298 5.52951 2.06693 -2.21716 5.52953 2.06693 95.6863 -11.0688 -101.075 33.0492 13.4711 -6.76973 -33.0178 19.8838 -123.623 -11.0944 -0.695924 2.25632 -85.5563 -32.781 82.4298 -38.485 37.7452 56.3805 86.2964 -42.8449 -78.8262 15.9696 0.880472 1.60822 16.2697 -10.7789 -5.48074 -16.7606 -8.8247 -1.06926 
-282.16 89.2176 277.942 92.6862 42.8714 88.986 -174.507 35.2229 89.3847 -33.527 10.0911 -2.87791 61.5532 -0.301426 1.31366 23.2604 -2.18027 -0.21669 173.94 -14.6974 92.4049 -56.2057 -9.96017 -3.33085 66.5603 -3.06735 -1.3563 21.2113 -0.252594 11.6545 2.34214 7.40789 -89.9321 12.076 4.68819 -0.380866 0.413363 4.66688 -0.587291 -22.1877 4.58547 1.0488 -2.17505 4.58546 1.0488 94.6589 -15.2515 -102.112 37.8345 -4.24539 -0.799648 -37.8537 22.937 -114.811 -9.82479 -0.506009 0.848509 -85.7837 -40.0948 83.472 -34.6546 34.0792 45.7189 89.0363 -36.8636 -77.8111 12.2356 0.773204 2.37647 14.6816 -8.51383 -4.45745 -17.5584 -7.1219 -0.0698066 
-273.403 88.7443 268.571 95.6316 42.5801 84.9459 -171.126 31.3653 86.7369 -47.3363 12.2584 -3.96328 72.4727 7.27664 4.52219 12.5616 -8.68624 2.6979 171.034 -1.95983 88.7569 -75.9421 -3.9319 -2.99496 71.2514 -6.38136 -4.03218 13.0363 4.92497 5.922 1.50483 7.58807 -89.7058 11.6979 3.13118 0.25836 0.0306722 3.13952 0.120163 -22.5314 2.90864 1.18824 -2.51871 2.90866 1.18825 94.5586 -20.2232 -100.474 45.2208 -18.0037 6.15898 -48.4262 19.2029 -97.1429 -7.7726 -0.358545 0.202256 -86.6965 -47.131 83.2125 -26.0601 26.8586 28.3047 90.3537 -29.3268 -79.6292 10.3411 0.8908 4.42174 15.0068 -5.57731 -6.31684 -17.1451 -3.95871 1.86745 
-265.397 87.835 260.01 97.8266 37.8748 77.4625 -167.863 20.9362 82.0772 -51.0087 7.24382 -5.89498 79.9933 12.9705 5.19467 22.1131 -2.44993 -0.597238 176.048 14.4355 82.149 -90.6975 -1.58912 -5.37737 74.8052 -8.98651 -5.24479 16.7843 2.55826 8.13992 0.972353 7.87748 -88.8351 11.0875 2.47573 2.07408 -0.582566 2.5646 1.96309 -23.1151 1.73818 2.72204 -3.10245 1.7382 2.72203 93.2395 -25.2534 -101.753 48.5233 -15.6682 14.2671 -55.5351 4.72418 -82.9212 -8.49152 -0.436239 0.372794 -87.8535 -50.8723 82.0984 -18.4327 26.743 8.65645 96.6618 -26.1629 -75.9102 19.5146 1.94502 6.34688 16.0884 -2.48553 -8.82406 -18.1444 -0.269631 2.5257 
-257.349 86.548 252.318 97.7849 35.9158 78.2994 -167.32 11.9318 80.6441 -53.4831 2.68345 -5.30068 92.6453 19.755 -0.588894 22.6247 -5.54852 6.12797 -179.031 31.7736 88.6204 -93.3774 -0.394689 -5.14159 75.9796 -9.97692 -7.33412 19.4314 -0.350789 13.9025 0.323874 7.79906 -88.9636 11.2704 1.12706 1.94833 -0.40185 1.21171 1.89686 -22.9237 0.489678 2.19684 -2.91107 0.489682 2.19684 93.8465 -23.9575 -100.849 50.4906 -9.2572 23.5494 -63.4088 -8.91968 -78.0548 -2.93495 -0.0808211 -1.85277 -88.2791 -51.7124 81.6195 -5.81005 29.323 -11.405 97.0757 -23.974 -75.1505 16.3843 -0.865065 -6.77159 15.138 2.09395 -5.41943 -18.2523 3.4682 0.449275 
-247.565 87.0995 242.501 99.7314 38.5239 79.3742 -169.441 -2.36208 88.7661 -45.3111 0.120664 -3.21873 96.0204 22.2204 -2.73294 29.9726 -2.13617 6.45763 -179.934 39.0225 91.1227 -81.0164 0.227193 -4.22188 78.4172 -10.046 -4.71781 18.1043 1.50419 9.69384 -0.760627 7.74581 -89.3336 11.3868 -1.20263 1.4488 -0.284362 -1.1377 1.50031 -22.8209 -1.58242 1.02039 -2.80821 -1.58242 1.02039 95.5113 -21.4882 -97.8243 50.6093 -8.06672 33.6298 -57.9297 -8.80226 -74.9579 -6.42765 -0.139834 -2.55048 -88.078 -49.3568 81.4932 4.18439 13.7085 -25.8527 83.8228 -22.7034 -83.5785 11.6694 1.6037 9.03165 14.0517 6.64949 -2.91817 -19.6395 7.23596 0.226451 
-237.501 87.5744 232.988 100.402 39.3309 80.9539 -169.884 -14.4779 88.1274 -36.1589 2.19881 -1.94577 89.3845 19.5577 0.660311 38.3185 1.2815 8.07478 -179.076 41.1332 91.9765 -58.5469 1.76831 -2.89813 78.8549 -9.58224 1.32455 5.86413 6.28835 9.49253 -1.69653 7.64425 -89.6512 11.6034 -3.2112 1.02746 -0.0641236 -3.16288 1.16791 -22.6311 -3.37136 0.0138016 -2.61846 -3.37139 0.0137988 96.5575 -17.5843 -96.4172 49.8771 -8.6972 41.0324 -52.7712 -4.64952 -74.8008 -6.59927 -0.0301549 -5.03958 -87.2823 -41.6809 81.2635 3.01851 5.75535 -30.1408 82.2247 -22.9901 -85.9198 12.3351 1.88694 10.8633 13.8505 10.8717 -2.46927 -21.485 10.9103 2.37506 
-226.459 88.4657 222.517 101.943 40.2962 81.5262 -169.804 -26.3942 90.7491 -27.6772 3.61587 -0.2344 73.64 8.99105 2.70019 45.5686 5.73955 3.38417 -179.757 34.0584 92.9477 -30.6826 -7.98018 -1.02984 64.8352 -2.68588 1.04844 20.76 1.96744 5.29251 -2.58437 7.70041 -90.0085 11.4963 -5.14564 0.510275 -0.164614 -5.11817 0.736834 -22.7799 -5.0605 -1.0639 -2.76729 -5.06046 -1.0639 97.5294 -12.8718 -95.2034 48.2639 -7.80234 45.4038 -55.9847 -0.41828 -78.09 -5.26896 0.0426288 -6.81861 -86.4247 -34.4488 81.2099 -3.59148 -4.13195 -29.4167 78.8306 -23.0497 -90.2893 11.9567 2.07967 12.7464 16.0622 14.6633 -0.48724 -24.6611 13.799 3.63531 
-215.889 88.5416 212.786 100.371 43.5852 83.5796 -169.665 -28.0334 93.4044 -31.5213 6.6601 1.95119 65.0456 2.55485 2.72091 31.9506 0.73591 1.53563 -178.554 30.2151 92.4448 -16.5864 -14.2888 -1.31202 62.7453 -3.32423 -1.90266 22.0168 1.00687 6.6498 -3.11503 7.41258 -90.4295 12.0612 -6.39531 -0.153228 0.406074 -6.39584 0.129564 -22.2462 -6.05246 -2.07534 -2.23355 -6.05246 -2.07534 97.8894 -10.8903 -94.7616 43.3778 -1.87768 51.4809 -49.6394 5.48893 -84.0622 -5.37935 0.0932787 -7.86472 -86.0599 -30.4084 80.9952 -10.9003 -8.57591 -30.4161 77.576 -22.7475 -92.8887 14.1193 2.49243 13.3289 17.3282 15.6752 0.952169 -26.632 13.9823 5.3687 
-206.5 87.4161 203.924 102.259 46.0032 80.6213 -169.007 -23.9384 93.8009 -48.0162 6.30288 2.14882 65.3085 2.81542 3.76118 26.0664 -0.812438 -0.695441 179.974 33.7915 90.125 -31.085 -14.6782 -2.00689 55.9836 3.75571 0.481713 14.2906 4.01019 6.92456 -3.09161 7.41087 -90.3205 12.0723 -6.29746 0.0539515 0.416687 -6.28894 0.332169 -22.2342 -6.02144 -1.84824 -2.22157 -6.02143 -1.84823 97.3909 -14.5468 -95.1624 37.6406 3.92029 50.6665 -49.0441 2.61867 -85.2292 -10.8133 -0.0506362 -5.404 -86.4233 -35.2125 81.3851 -11.5785 -4.26991 -32.2087 77.5249 -24.6313 -92.1658 13.5499 2.19106 11.8295 18.4966 14.8718 2.36044 -24.6462 13.1031 3.79709 
-198.257 85.858 195.878 105.038 45.6669 79.8752 -166.983 -13.4977 95.3064 -70.5509 2.64445 2.14963 65.7864 2.29369 5.10243 28.3513 1.24046 -3.49543 176.257 36.6238 91.8397 -51.5391 -17.3701 -0.288702 62.4123 0.318361 -3.4508 12.2365 4.35625 8.1068 -2.45124 7.74583 -90.513 11.3799 -5.1168 -0.507269 -0.280978 -5.13414 -0.280989 -22.8871 -4.72727 -2.02496 -2.87448 -4.72727 -2.02496 96.3695 -20.3175 -96.1228 38.2602 4.90903 38.4183 -49.6387 1.20338 -85.0357 -10.5704 -0.150603 -3.67626 -88.1333 -44.5607 80.4671 -8.98759 2.68773 -28.6755 82.2385 -26.4481 -88.7642 12.9059 2.20645 12.6318 19.008 13.8005 5.32776 -20.4561 11.7156 0.640176 
-191.721 85.4992 189.918 104.308 41.858 86.7631 -163.948 4.52877 98.9738 -91.5353 4.18869 2.69472 68.3135 3.89229 7.35134 25.7997 -0.137597 -2.60373 174.631 33.6513 99.3745 -58.0771 -18.4564 1.07237 68.044 -4.87931 -6.09758 16.2452 2.64192 8.46684 -1.24249 8.06081 -91.4561 10.707 -3.14486 -2.60308 -0.962475 -3.25632 -2.46215 -23.494 -2.21772 -3.4275 -3.4813 -2.21772 -3.42749 94.9347 -24.7673 -98.1923 34.8661 3.40235 17.7375 -57.4735 2.97926 -88.6128 -8.03309 -0.0882617 -4.09951 -90.0594 -51.981 79.061 -11.5277 1.59583 -17.8899 81.3068 -23.4893 -89.1438 13.9598 2.32749 12.4066 20.2412 12.8428 9.52619 -19.9964 9.50679 -0.20709 
-185.572 85.9957 183.768 103.189 41.3419 87.374 -165.139 22.9874 94.1752 -101.195 7.90287 3.11312 71.3338 6.30961 7.81456 20.1864 -2.25261 -2.63483 173.558 29.6557 98.9772 -62.2768 -19.8159 0.900786 73.8361 -9.99363 -7.97061 17.2567 2.39497 8.06184 -0.581397 8.02183 -91.5205 10.7983 -1.8594 -2.85253 -0.874166 -1.98311 -2.768 -23.3884 -0.916666 -3.27904 -3.3757 -0.916666 -3.27904 93.3043 -25.9235 -101.384 26.7586 2.27159 -2.97487 -55.1202 2.80421 -88.5511 -10.2446 -0.664581 2.59507 -89.6094 -52.7028 79.8604 -10.714 -1.77046 -3.20163 77.4494 -25.9258 -92.5167 13.6701 1.85566 9.35235 16.3527 10.3548 10.4456 -17.8654 7.24704 -0.792616 
